<svg width="291.5199951171875px" height="152.04000854492188px" xmlns="http://www.w3.org/2000/svg" viewBox="104.24000244140626 -1.0200042724609375 291.5199951171875 152.04000854492188" style="background: rgb(29, 14, 3);" preserveAspectRatio="xMidYMid"><defs><filter id="editing-vr"><feFlood flood-color="#7f683f" flood-opacity="0.7" result="c1"></feFlood><feFlood flood-color="#c3a470" flood-opacity="0.7" result="c3"></feFlood><feComposite operator="in" in="c1" in2="SourceAlpha" result="text-c1"></feComposite><feComposite operator="in" in="c3" in2="SourceAlpha" result="text-c3"></feComposite><feOffset in="text-c1" dx="-20" dy="20" result="text1"></feOffset><feOffset in="text-c3" dx="20" dy="-20" result="text3"></feOffset><feBlend in="SourceGraphic" in2="text1" mode="multiply" result="text4"></feBlend><feBlend in="text4" in2="text3" mode="multiply"></feBlend></filter></defs><g filter="url(#editing-vr)"><g transform="translate(150.56498873233795, 102.22999954223633)"><path d="M1.40 0L1.40-11.48L4.90-11.48L4.90-42.98L1.40-42.98L1.40-54.46L32.13-54.46L32.13-54.46Q41.16-54.46 45.92-50.58L45.92-50.58L45.92-50.58Q50.68-46.69 50.68-38.01L50.68-38.01L50.68-38.01Q50.68-29.33 45.92-25.45L45.92-25.45L45.92-25.45Q41.16-21.56 32.13-21.56L32.13-21.56L24.50-21.56L24.50-11.48L31.22-11.48L31.22 0L1.40 0ZM24.50-31.50L26.88-31.50L26.88-31.50Q30.94-31.50 30.94-35.98L30.94-35.98L30.94-38.50L30.94-38.50Q30.94-40.81 29.93-41.90L29.93-41.90L29.93-41.90Q28.91-42.98 26.88-42.98L26.88-42.98L24.50-42.98L24.50-31.50ZM96.39 0L53.06 0L53.06-11.48L56.56-11.48L56.56-42.98L53.06-42.98L53.06-54.46L82.60-54.46L82.60-42.98L76.16-42.98L76.16-11.48L82.46-11.48L82.46-17.92L96.39-17.92L96.39 0ZM138.32-54.46L150.15-11.48L152.95-11.48L152.95 0L125.51 0L125.51-11.48L129.71-11.48L128.59-17.08L119.07-17.08L117.95-11.48L122.15-11.48L122.15 0L98.21 0L98.21-11.48L101.01-11.48L112.84-54.46L138.32-54.46ZM123.48-38.43L120.61-24.50L127.05-24.50L124.18-38.43L123.48-38.43ZM175.98-42.98L175.98-54.46L197.47-54.46L197.47-42.98L194.67-42.98L181.16-18.76L181.16-11.48L184.66-11.48L184.66 0L158.06 0L158.06-11.48L161.56-11.48L161.56-18.76L147.63-42.98L144.83-42.98L144.83-54.46L171.92-54.46L171.92-42.98L169.47-42.98L173.60-32.13L174.30-32.13L178.43-42.98L175.98-42.98Z" fill="#4f3c1e"></path></g></g><style>text {
  font-size: 64px;
  font-family: Arial Black;
  dominant-baseline: central;
  text-anchor: middle;
}</style></svg>